<svg width="337" height="128" viewBox="0 0 337 128" fill="none" xmlns="http://www.w3.org/2000/svg">
<path d="M33.6144 9.88672V12.5232C30.6265 12.6111 28.3416 12.9626 26.7597 13.5778C25.2657 14.1051 24.2551 15.1596 23.7278 16.7415C23.2005 18.2355 22.9369 20.6083 22.9369 23.8599V89.2441C22.9369 92.4078 23.2005 94.7806 23.7278 96.3625C24.2551 97.9444 25.2657 98.999 26.7597 99.5263C28.3416 99.9657 30.6265 100.185 33.6144 100.185H43.2374C47.3678 100.185 50.7072 99.746 53.2558 98.8672C55.8922 97.9883 57.9574 96.6262 59.4514 94.7806C61.0332 92.8472 62.2196 90.2987 63.0106 87.1349C63.8015 83.9712 64.4167 80.1044 64.8561 75.5345H67.8879C67.6243 78.2588 67.4925 81.862 67.4925 86.344C67.4925 88.0137 67.5364 90.4305 67.6243 93.5942C67.8001 96.6701 68.0637 99.8778 68.4152 103.217C63.9333 103.042 58.8802 102.954 53.2558 102.954C47.6314 102.866 42.6222 102.822 38.2282 102.822C36.2948 102.822 33.7902 102.822 30.7144 102.822C27.7264 102.822 24.4748 102.866 20.9596 102.954C17.4443 102.954 13.8852 102.998 10.2821 103.085C6.67894 103.085 3.25159 103.129 0 103.217V100.581C2.98795 100.405 5.22891 100.054 6.72288 99.5263C8.30474 98.999 9.35931 97.9444 9.88659 96.3625C10.4139 94.7806 10.6775 92.4078 10.6775 89.2441V23.8599C10.6775 20.6083 10.4139 18.2355 9.88659 16.7415C9.35931 15.1596 8.30474 14.1051 6.72288 13.5778C5.22891 12.9626 2.98795 12.6111 0 12.5232V9.88672C1.8455 9.9746 4.26222 10.0625 7.25017 10.1504C10.2381 10.2382 13.4458 10.2822 16.8731 10.2822C19.949 10.2822 22.9808 10.2382 25.9688 10.1504C29.0446 10.0625 31.5932 9.9746 33.6144 9.88672Z" fill="black"/>
<path d="M107.815 33.483C115.549 33.483 121.569 35.8558 125.875 40.6014C130.269 45.2592 132.466 52.5534 132.466 62.484H85.933L85.8012 59.9794H119.811C119.987 55.6732 119.635 51.7185 118.757 48.1153C117.878 44.4243 116.472 41.4803 114.538 39.2832C112.693 37.0862 110.276 35.9876 107.288 35.9876C103.246 35.9876 99.6424 38.0089 96.4787 42.0515C93.4029 46.0941 91.5574 52.5094 90.9422 61.2976L91.3377 61.8249C91.162 63.1432 91.0301 64.5932 90.9422 66.1751C90.8544 67.757 90.8104 69.3388 90.8104 70.9207C90.8104 76.8967 91.7771 82.0378 93.7105 86.344C95.6439 90.6502 98.1485 93.9458 101.224 96.2307C104.388 98.4277 107.64 99.5263 110.979 99.5263C113.616 99.5263 116.12 99.1308 118.493 98.3399C120.866 97.461 123.063 96.0549 125.084 94.1215C127.105 92.1881 128.863 89.5956 130.357 86.344L132.993 87.3986C132.027 90.2987 130.445 93.1109 128.248 95.8352C126.051 98.5596 123.282 100.801 119.943 102.558C116.603 104.228 112.737 105.063 108.343 105.063C102.015 105.063 96.5666 103.613 91.9968 100.713C87.5149 97.8126 84.0436 93.8139 81.5829 88.7168C79.2102 83.5318 78.0238 77.5997 78.0238 70.9207C78.0238 63.1871 79.2541 56.552 81.7148 51.0154C84.1754 45.391 87.6467 41.0848 92.1286 38.0968C96.6106 35.0209 101.839 33.483 107.815 33.483Z" fill="black"/>
<path d="M181.617 33.483C188.823 33.483 194.799 36.471 199.544 42.447C204.29 48.3351 206.663 57.299 206.663 69.3388C206.663 77.2482 205.301 83.8833 202.576 89.2441C199.94 94.517 196.381 98.4717 191.899 101.108C187.417 103.745 182.539 105.063 177.267 105.063C172.873 105.063 168.61 103.832 164.48 101.372C160.437 98.8232 157.406 95.0882 155.384 90.1668L158.021 91.6169C160.218 95.1322 162.942 97.7686 166.194 99.5263C169.445 101.196 172.785 102.031 176.212 102.031C182.1 102.031 186.494 99.3944 189.394 94.1215C192.382 88.7607 193.876 80.4998 193.876 69.3388C193.876 62.2204 193.305 56.2884 192.162 51.5427C191.02 46.7971 189.262 43.2818 186.89 40.9969C184.517 38.6241 181.485 37.4377 177.794 37.4377C173.751 37.4377 169.973 39.2832 166.457 42.9743C163.03 46.5774 160.921 51.8943 160.13 58.9248L158.548 57.0793C159.515 49.6093 162.107 43.8091 166.325 39.6787C170.632 35.5482 175.729 33.483 181.617 33.483ZM161.053 0V96.3625C159.91 97.3292 158.724 98.3399 157.493 99.3944C156.351 100.361 155.209 101.328 154.066 102.295C152.924 103.261 151.737 104.272 150.507 105.326L148.266 104.404C148.617 103.173 148.837 101.943 148.925 100.713C149.101 99.3944 149.189 98.0762 149.189 96.758V15.8187C149.189 11.8641 148.486 8.96396 147.08 7.11844C145.673 5.18503 143.037 4.21833 139.17 4.21833V1.45006C141.982 1.7137 144.707 1.84552 147.343 1.84552C149.892 1.84552 152.308 1.7137 154.593 1.45006C156.966 1.09853 159.119 0.615176 161.053 0Z" fill="black"/>
<path d="M240.34 33.483C243.855 33.483 246.843 34.0542 249.304 35.1967C251.765 36.3392 253.566 37.3938 254.709 38.3605C257.609 40.7333 259.366 39.1514 259.981 33.6148H263.013C262.838 36.0755 262.706 39.0196 262.618 42.447C262.53 45.7865 262.486 50.3124 262.486 56.0247H259.454C258.927 52.7731 258.004 49.6093 256.686 46.5335C255.456 43.4576 253.61 40.953 251.149 39.0196C248.689 36.9983 245.481 35.9876 241.526 35.9876C238.451 35.9876 235.858 36.8665 233.749 38.6241C231.728 40.2939 230.717 42.7985 230.717 46.138C230.717 48.7745 231.508 51.0594 233.09 52.9928C234.672 54.8383 236.737 56.596 239.285 58.2657C241.834 59.8476 244.602 61.6052 247.59 63.5386C250.93 65.6478 253.962 67.8009 256.686 69.9979C259.41 72.195 261.563 74.6117 263.145 77.2482C264.815 79.8847 265.65 83.0045 265.65 86.6076C265.65 90.6502 264.595 94.0336 262.486 96.758C260.377 99.4823 257.609 101.548 254.181 102.954C250.842 104.36 247.151 105.063 243.108 105.063C241.175 105.063 239.329 104.887 237.572 104.536C235.902 104.272 234.276 103.832 232.694 103.217C231.816 102.778 230.893 102.251 229.926 101.635C229.047 101.02 228.169 100.361 227.29 99.6581C226.411 98.955 225.62 98.999 224.917 99.7899C224.214 100.493 223.687 101.943 223.335 104.14H220.303C220.479 101.328 220.611 97.9004 220.699 93.8579C220.787 89.8153 220.83 84.4545 220.83 77.7755H223.862C224.478 82.6969 225.356 87.0031 226.499 90.6941C227.641 94.3852 229.443 97.2853 231.903 99.3944C234.364 101.416 237.791 102.426 242.186 102.426C243.943 102.426 245.701 102.031 247.458 101.24C249.304 100.449 250.842 99.1308 252.072 97.2853C253.302 95.4398 253.918 92.9791 253.918 89.9032C253.918 86.0364 252.512 82.8726 249.699 80.4119C246.887 77.9513 243.328 75.3587 239.022 72.6344C235.858 70.6131 232.87 68.5918 230.058 66.5705C227.334 64.5493 225.093 62.2643 223.335 59.7158C221.665 57.1672 220.83 54.0913 220.83 50.4882C220.83 46.5335 221.709 43.3258 223.467 40.8651C225.312 38.3165 227.729 36.471 230.717 35.3285C233.705 34.0982 236.913 33.483 240.34 33.483Z" fill="black"/>
<path d="M337 35.3285V37.965C335.33 38.1408 333.792 38.8877 332.386 40.206C330.98 41.5242 329.662 43.8531 328.432 47.1926L306.813 103.876H304.572L280.317 45.4789C278.647 42.0515 276.977 39.9863 275.308 39.2832C273.726 38.4923 272.408 38.0968 271.353 38.0968V35.3285C273.286 35.5922 275.308 35.8119 277.417 35.9876C279.526 36.0755 281.811 36.1195 284.272 36.1195C286.996 36.1195 289.852 36.0316 292.84 35.8558C295.916 35.6801 298.772 35.5043 301.408 35.3285V38.0968C299.211 38.0968 297.234 38.2726 295.476 38.6241C293.807 38.8877 292.752 39.8105 292.313 41.3924C291.873 42.8864 292.4 45.4789 293.894 49.1699L310.108 89.3759L309.318 89.6396L324.345 50.3563C325.488 47.4562 325.927 45.1713 325.663 43.5015C325.488 41.7439 324.609 40.4257 323.027 39.5469C321.445 38.668 319.072 38.1408 315.909 37.965V35.3285C317.49 35.4164 318.853 35.5043 319.995 35.5922C321.138 35.5922 322.236 35.6361 323.291 35.724C324.433 35.724 325.663 35.724 326.982 35.724C329.003 35.724 330.804 35.6801 332.386 35.5922C334.056 35.5043 335.594 35.4164 337 35.3285ZM306.813 103.876L302.331 115.345C301.452 117.542 300.529 119.388 299.563 120.882C298.684 122.376 297.717 123.606 296.663 124.573C295.257 125.891 293.587 126.77 291.653 127.209C289.72 127.736 287.963 128 286.381 128C284.711 128 283.173 127.692 281.767 127.077C280.449 126.462 279.394 125.539 278.603 124.309C277.812 123.166 277.417 121.76 277.417 120.091C277.417 117.981 278.032 116.268 279.262 114.95C280.493 113.719 282.206 113.104 284.403 113.104C286.249 113.104 287.831 113.631 289.149 114.686C290.467 115.74 291.126 117.278 291.126 119.3C291.126 120.794 290.775 122.024 290.072 122.991C289.369 123.957 288.534 124.704 287.567 125.232C287.743 125.32 287.875 125.364 287.963 125.364C288.138 125.364 288.27 125.364 288.358 125.364C290.731 125.364 292.84 124.529 294.685 122.859C296.531 121.277 298.157 118.685 299.563 115.081L304.308 102.822L306.813 103.876Z" fill="black"/>
</svg>
